<?xml version="1.0" standalone="no"?>
<!DOCTYPE svg PUBLIC "-//W3C//DTD SVG 20010904//EN"
 "http://www.w3.org/TR/2001/REC-SVG-20010904/DTD/svg10.dtd">
<svg version="1.0" xmlns="http://www.w3.org/2000/svg"
 width="226.000000pt" height="240.000000pt" viewBox="0 0 226.000000 240.000000"
 preserveAspectRatio="xMidYMid meet">

<g transform="translate(0.000000,240.000000) scale(0.100000,-0.100000)"
fill="#000000" stroke="none">
<path d="M1780 2074 c-44 -20 -98 -68 -259 -229 l-204 -204 -425 60 -426 60
-155 -155 c-85 -85 -153 -157 -151 -160 3 -2 161 -67 352 -143 l347 -139 -149
-176 c-110 -130 -157 -178 -177 -182 -16 -3 -95 -18 -178 -32 -82 -14 -152
-28 -155 -30 -2 -3 133 -142 300 -309 168 -168 307 -301 311 -297 3 4 19 83
34 176 18 102 35 176 44 187 36 41 335 289 341 282 4 -5 67 -159 140 -343 73
-184 136 -338 139 -342 4 -4 76 62 161 147 l155 155 -62 427 -61 428 208 210
c128 128 217 227 231 255 30 58 31 156 2 220 -62 139 -224 199 -363 134z m188
-146 c46 -35 60 -89 38 -140 -8 -18 -113 -132 -235 -253 -148 -148 -221 -227
-221 -241 0 -11 27 -205 60 -430 l60 -408 -52 -53 -52 -53 -131 328 c-72 180
-134 335 -138 345 -5 14 -55 -24 -279 -214 -150 -127 -276 -239 -280 -249 -3
-9 -9 -43 -13 -74 l-8 -58 -103 103 c-57 57 -104 109 -104 115 0 7 25 15 61
19 l60 7 76 89 c42 49 79 89 84 89 4 0 26 -21 48 -47 23 -27 41 -43 41 -38 0
6 -18 30 -40 53 -22 22 -40 44 -40 47 0 8 152 185 159 185 3 0 29 -23 58 -52
41 -41 55 -50 65 -40 9 9 9 12 -3 12 -8 0 -37 22 -64 50 -42 42 -46 51 -35 65
7 9 20 13 28 10 10 -3 12 0 9 10 -4 8 12 36 39 67 31 37 41 54 32 59 -11 6
-558 226 -647 261 -24 9 -24 9 28 62 l52 52 424 -60 424 -61 228 227 c239 237
263 254 326 237 16 -5 36 -14 45 -21z"/>
<path d="M1725 1718 c-8 -18 -14 -29 -15 -25 0 4 -9 3 -20 -3 -11 -6 -20 -16
-19 -23 0 -9 2 -9 6 1 8 21 36 13 70 -20 18 -18 33 -27 33 -22 0 6 -11 21 -25
34 -29 27 -32 52 -10 70 13 11 21 8 48 -18 45 -44 59 -41 17 3 -43 44 -67 45
-85 3z"/>
<path d="M1675 1610 c21 -22 41 -37 44 -35 6 7 -60 75 -73 75 -6 0 7 -18 29
-40z"/>
<path d="M1571 1581 c-18 -32 -13 -60 15 -77 50 -33 107 14 80 67 -16 33 -80
40 -95 10z m77 -3 c26 -26 8 -78 -27 -78 -20 0 -51 30 -51 50 0 22 20 40 45
40 12 0 26 -5 33 -12z"/>
<path d="M1486 1498 c-21 -29 -20 -51 2 -70 27 -23 42 -30 42 -19 0 6 -7 11
-15 11 -19 0 -38 36 -30 60 3 10 18 23 33 29 24 8 25 10 5 10 -12 1 -29 -9
-37 -21z"/>
<path d="M1568 1440 c-9 -17 -13 -30 -8 -30 11 0 32 38 28 50 -2 5 -11 -4 -20
-20z"/>
<path d="M1366 1379 c-15 -22 -12 -49 6 -49 5 0 23 7 40 16 38 20 60 5 40 -27
-8 -12 -9 -18 -3 -14 7 3 11 -2 11 -14 0 -14 6 -21 20 -21 13 0 20 7 20 20 0
13 -7 20 -19 20 -14 0 -18 5 -14 18 2 10 -2 24 -11 31 -12 10 -20 9 -45 -3
-16 -9 -32 -16 -36 -16 -10 0 -5 36 7 48 7 7 9 12 6 12 -4 0 -14 -10 -22 -21z"/>
<path d="M1340 1291 c11 -28 18 -51 16 -51 -3 0 -26 9 -52 20 -26 11 -49 19
-51 17 -2 -3 21 -15 52 -27 56 -23 82 -50 69 -73 -5 -9 -4 -9 6 0 10 9 7 26
-16 83 -15 39 -31 73 -36 76 -4 3 1 -17 12 -45z"/>
<path d="M1199 1223 c-11 -15 -11 -16 1 -5 23 20 45 14 74 -19 15 -17 30 -28
33 -26 8 9 -59 67 -77 67 -10 0 -24 -8 -31 -17z"/>
<path d="M1127 1180 l23 -26 -30 -11 c-24 -9 -30 -17 -30 -41 0 -16 9 -37 19
-46 25 -22 71 -17 85 9 6 11 14 22 18 25 4 4 -18 31 -49 60 -32 30 -48 44 -36
30z m48 -60 c25 -27 13 -70 -19 -70 -45 0 -72 50 -44 78 18 18 43 15 63 -8z"/>
<path d="M1220 1171 c-7 -15 -6 -23 6 -35 21 -22 31 -20 11 2 -11 12 -13 22
-6 35 6 9 8 17 5 17 -3 0 -10 -9 -16 -19z"/>
<path d="M1271 1147 c-13 -21 -12 -21 5 -5 10 10 16 20 13 22 -3 3 -11 -5 -18
-17z"/>
<path d="M1072 1030 c18 -22 37 -40 43 -40 5 0 -9 18 -30 40 -50 51 -55 51
-13 0z"/>
<path d="M927 962 c-21 -23 -21 -41 -1 -70 22 -32 73 -27 93 9 13 24 13 29 -2
53 -21 31 -66 35 -90 8z m72 -6 c7 -8 11 -27 9 -43 -2 -22 -9 -29 -30 -31 -36
-4 -65 36 -48 67 12 24 52 28 69 7z"/>
<path d="M837 883 c-4 -3 -7 -13 -7 -22 1 -14 2 -13 11 2 14 25 31 21 64 -13
16 -16 31 -28 34 -25 2 3 -8 19 -24 35 -27 28 -63 39 -78 23z"/>
</g>
</svg>
